<svg xmlns="http://www.w3.org/2000/svg" viewBox="0 0 1041.39 336.94"><defs><style>.cls-1{fill:#fa601a;}</style></defs><title>Asset 1</title><g id="Layer_2" data-name="Layer 2"><g id="Layer_1-2" data-name="Layer 1"><path class="cls-1" d="M1040.76,95.14c-1.65-3.52-4.91-5.12-8.8-5-11.88.34-13.22,13.9-15.21,22.62-7.47,30.81-21.61,69.82-55.86,78.31-2.32.44-1-4.6-.54-6.8,8.41-38.36,10.1-77.11,9.06-116.21a141.55,141.55,0,0,0-6.9-40.53c-5-16.68-20.38-33.62-39.2-25.36-20.76,9.12-27.9,39.93-30.67,60-5.77,41.72-3.91,93.7,22.39,128.8,4.85,6.48,11.1,12.45,15.7,19.3C925,234.61,913,258.72,899.21,279.66c-4.44,6.8-11.5,17.93-19.29,20.62-15.28,5.09-19.3-17-21.93-27.49-1.11-4.46-1.68-9.15-2.39-13.69-6.69-42.48-5.82-85.61-4.67-128.45.58-21.44,1.24-42.9,1-64.36-.14-15.34,4.29-46-8-57.7a15,15,0,0,0-14.54-3.27c-15.92,4.61-22.71,26.36-26.07,40.89-10.71,46.2-20.47,92.63-32.1,138.61-2.78,11.55-4.6,23.67-12.44,33.12-13.5,15.36-17.82-9.75-19.23-19.31-.17-1.19-.34-2.38-.49-3.57l-.1.11c-3.54-27.7-3.79-55.81-1.77-83.6,1.63-19.9,4.22-39.59,3.66-59.59-.17-8-3.32-13.87-11.48-15.55C714.15,33.3,698.54,40,689.49,52.54c-10,13.81-7.76,30.55-7.78,46.6,0,17.29-.25,34.59.38,51.87,1.19,33,4.9,68.12,22,97.15,15.28,26.79,50.68,40,68.52,8.12,8.08-13.67,13.42-29.13,17.71-44.11,8.34-29.15,14.47-59.4,20.52-89.39q1-4.82,3.36-14.34a9.23,9.23,0,0,1,.52-1.11.08.08,0,0,1,.15,0c-1.14,17.4-3,26.4-3.87,46.88-1.13,40.44-4.42,84.85,5.06,125.42,7.78,38.81,41.08,77.13,79.75,45.68,27.19-25.76,43.54-73.76,57-108.39,52.07-5.09,74.22-56.66,85.35-101.53C1039.45,110.67,1042.76,99.41,1040.76,95.14ZM939.37,127.45c-.09,12.92-.21,25.87-1.29,38.76-.31,3.89-.54,8-1.82,11.65-.14.54-.63,1-1.13.45a20.16,20.16,0,0,1-3.69-6.7c-5.48-14.46-11.15-30.67-12.23-46.33-1.92-30.14-2.73-59.11,5.52-87.78.59-1.9,1.58-4.68,3-5.85,5.12-4.09,8.54,16.41,8.81,18.4C940.11,75.67,939.49,101.64,939.37,127.45Z"/><polygon class="cls-1" points="161.09 119.72 135.1 212.82 108.66 119.72 81.84 119.72 55.7 212.82 29.41 119.72 0 119.72 40.83 240.83 68.86 240.83 94.72 152.63 120.08 240.83 148.28 240.83 189.29 119.72 161.09 119.72"/><path class="cls-1" d="M258.58,153.89q-10.47-6.84-26.9-6.83-14.19.16-25,6.05a42.19,42.19,0,0,0-16.87,16.53q-6.06,10.63-6.06,25,0,14,6,24.65a41.51,41.51,0,0,0,16.87,16.53q10.91,5.88,25.78,5.88a59.42,59.42,0,0,0,22.75-4.15,45.55,45.55,0,0,0,17-11.94l-14-13.84q-10,10-23.53,10a24.85,24.85,0,0,1-13.15-3.46,23,23,0,0,1-8.83-9.86,28.85,28.85,0,0,1-2.1-6.06h66.82q1.2-16.95-3.55-29.32A39,39,0,0,0,258.58,153.89Zm-48.57,33a30,30,0,0,1,2.29-7.79,22.78,22.78,0,0,1,7.78-9.51,20.21,20.21,0,0,1,11.77-3.46,21.74,21.74,0,0,1,10.73,2.59,18,18,0,0,1,7.18,7.18,24.07,24.07,0,0,1,2.68,11Z"/><path class="cls-1" d="M374.85,153q-9.77-6-22.92-6-11.94,0-20.5,5.7a33.64,33.64,0,0,0-8.91,8.78V112.45H295.87V240.83h26.65V227.21a33.75,33.75,0,0,0,9.17,8.87q8.64,5.63,20.76,5.62,13.14,0,22.84-5.88a39.93,39.93,0,0,0,15-16.44q5.36-10.56,5.37-24.57,0-14.35-5.54-25.09A41.34,41.34,0,0,0,374.85,153Zm-9,54.85a21.77,21.77,0,0,1-8.05,9.26,22.5,22.5,0,0,1-32.35-9.26,30.6,30.6,0,0,1-2.94-13.75,30.07,30.07,0,0,1,2.94-13.67,22.88,22.88,0,0,1,8.22-9.26,23.28,23.28,0,0,1,24.13,0,22.42,22.42,0,0,1,8.05,9.34,31.17,31.17,0,0,1,2.85,13.59A31.55,31.55,0,0,1,365.86,207.87Z"/><path class="cls-1" d="M426.68,106.91a13.88,13.88,0,0,0-10.21,4.16,15,15,0,0,0,0,20.76,14.94,14.94,0,0,0,20.67,0,15.27,15.27,0,0,0,0-20.76A14,14,0,0,0,426.68,106.91Z"/><rect class="cls-1" x="413.35" y="147.92" width="26.65" height="92.91"/><path class="cls-1" d="M504.88,111.24a40.75,40.75,0,0,0-17.13,3.55,29,29,0,0,0-12.45,10.64q-4.68,7.09-4.68,17.65v8.82H458.17v17.82h12.45v71.11H497.1V169.72h22V151.9h-22v-8.3a12.34,12.34,0,0,1,1.47-6.32,8.56,8.56,0,0,1,4.06-3.63,13.79,13.79,0,0,1,5.54-1.13,21.26,21.26,0,0,1,5.62.78,48.35,48.35,0,0,1,5.45,1.82l4-20.07a51,51,0,0,0-8.91-2.77A44.22,44.22,0,0,0,504.88,111.24Z"/><path class="cls-1" d="M604.51,152.22l-22,65.05-24.39-65.05H530.63l15.76,37.18c7,16.42,15.87,33,21.22,50.06,2,6.29-1.79,14.69-8.55,17.13-7.63,2.74-16.64-4.3-22,4.43l-.41.68a10.84,10.84,0,0,0,5.4,15.77l.75.28a40.11,40.11,0,0,0,13.4,2.16q12.12,0,20.59-6.06t13.5-18l40.83-103.64Z"/></g></g></svg>